<?xml version="1.0" encoding="UTF-8" standalone="no"?>
<!-- Created with Inkscape (http://www.inkscape.org/) -->

<svg
   xmlns:dc="http://purl.org/dc/elements/1.1/"
   xmlns:cc="http://creativecommons.org/ns#"
   xmlns:rdf="http://www.w3.org/1999/02/22-rdf-syntax-ns#"
   xmlns:svg="http://www.w3.org/2000/svg"
   xmlns="http://www.w3.org/2000/svg"
   xmlns:sodipodi="http://sodipodi.sourceforge.net/DTD/sodipodi-0.dtd"
   xmlns:inkscape="http://www.inkscape.org/namespaces/inkscape"
   id="svg3745"
   sodipodi:docname="kittyjingles15-bee.svg"
   viewBox="0 0 108.20128 133.24751"
   version="1.1"
   inkscape:version="0.48.5 r10040"
   width="100%"
   height="100%">
  <defs
     id="defs3075" />
  <sodipodi:namedview
     id="base"
     bordercolor="#666666"
     inkscape:pageshadow="2"
     inkscape:window-y="27"
     pagecolor="#ffffff"
     inkscape:window-height="1017"
     inkscape:window-maximized="1"
     inkscape:zoom="2.0366862"
     inkscape:window-x="0"
     showgrid="false"
     borderopacity="1.0"
     inkscape:current-layer="layer1"
     inkscape:cx="-148.31189"
     inkscape:cy="65.768267"
     inkscape:window-width="1920"
     inkscape:pageopacity="0.0"
     inkscape:document-units="px"
     fit-margin-top="0"
     fit-margin-left="0"
     fit-margin-right="0"
     fit-margin-bottom="0" />
  <g
     id="layer1"
     inkscape:label="Layer 1"
     inkscape:groupmode="layer"
     transform="translate(-233.57943,-349.07549)">
    <g
       id="g3077"
       transform="matrix(0.84571546,0,0,0.84571546,44.384587,64.135967)">
      <path
         inkscape:connector-curvature="0"
         d="m 304.39,389.78 c 0,9.9013 -8.0816,17.928 -18.051,17.928 -9.9691,0 -18.051,-8.0266 -18.051,-17.928 0,-9.9013 8.0816,-17.928 18.051,-17.928 9.9691,0 18.051,8.0266 18.051,17.928 z"
         style="fill:#000000"
         id="path3757" />
      <path
         sodipodi:cx="335.22592"
         sodipodi:cy="418.98038"
         transform="matrix(0.93299,0.8075,-0.55142,1.3663,230.87,-414.08)"
         d="m 364.0718,418.98038 c 0,8.40621 -12.91474,15.2208 -28.84588,15.2208 -15.93114,0 -28.84588,-6.81459 -28.84588,-15.2208 0,-8.40622 12.91474,-15.22081 28.84588,-15.22081 15.93114,0 28.84588,6.81459 28.84588,15.22081 z"
         sodipodi:type="arc"
         style="fill:none;stroke:#000000;stroke-width:1.5"
         sodipodi:ry="15.220803"
         sodipodi:rx="28.845877"
         id="path3759" />
      <path
         sodipodi:cx="335.22592"
         sodipodi:cy="418.98038"
         transform="matrix(0.95236,-0.96243,0.68823,1.3318,-343.58,196.14)"
         d="m 364.0718,418.98038 c 0,8.40621 -12.91474,15.2208 -28.84588,15.2208 -15.93114,0 -28.84588,-6.81459 -28.84588,-15.2208 0,-8.40622 12.91474,-15.22081 28.84588,-15.22081 15.93114,0 28.84588,6.81459 28.84588,15.22081 z"
         sodipodi:type="arc"
         style="fill:none;stroke:#000000;stroke-width:1.5"
         sodipodi:ry="15.220803"
         sodipodi:rx="28.845877"
         id="path3761" />
      <path
         inkscape:connector-curvature="0"
         d="m 312.66,431.05 c 0,22.328 -11.296,40.429 -25.23,40.429 -13.934,0 -25.23,-18.101 -25.23,-40.429 0,-14.972 4.7868,-27.002 12.142,-33.304 3.6137,-3.0959 7.8474,-4.8091 12.438,-4.8091 16.254,0 25.881,15.785 25.881,38.113 z"
         style="fill:#ffff00;stroke:#000000;stroke-width:2.0079"
         sodipodi:nodetypes="cssssc"
         id="path3769" />
      <path
         inkscape:connector-curvature="0"
         d="m 266.66,406.54 c 2.1294,-5.4321 39.482,-5.9835 41.126,-0.26204 l 3.6155,12.578 c -16.456,-10.509 -32.502,-8.759 -48.357,0.26205 l 3.6155,-12.578 z"
         style="fill:#000000"
         sodipodi:nodetypes="csccs"
         id="rect3775" />
      <path
         inkscape:connector-curvature="0"
         d="m 261.96,426.08 c 21.528,-10.655 38.038,-9.452 51.507,0.29471 l -1.3487,11.493 c -13.633,-11.59 -37.354,-7.7102 -49.754,-0.63862 l -0.40397,-11.149 z"
         style="fill:#000000"
         sodipodi:nodetypes="ccccc"
         id="rect3779" />
      <path
         inkscape:connector-curvature="0"
         d="m 284.78,471.03 h 7.6393 l -3.3214,11.293 -4.3179,-11.293 z"
         style="fill:#000000"
         sodipodi:nodetypes="cccc"
         id="rect3781" />
      <path
         inkscape:connector-curvature="0"
         d="m 263.15,444.44 c 15.397,-6.131 31.721,-7.1689 47.748,1.0978 l -5.7226,12.992 c -11.465,-9.8131 -25.275,-9.3482 -36.09,0.36126 l -5.9358,-14.451 z"
         style="fill:#000000"
         sodipodi:nodetypes="ccccc"
         id="rect4299" />
      <path
         inkscape:connector-curvature="0"
         d="m 275.45,465.13 c 7.6451,-2.4229 15.515,-3.048 23.813,-0.2455 l -3.9279,3.1915 c -5.1109,2.7737 -10.439,3.5938 -16.203,0.491 l -3.6825,-3.437 z"
         style="fill:#000000;stroke:#000000;stroke-width:2.20000005"
         sodipodi:nodetypes="ccccc"
         id="rect4302" />
      <path
         inkscape:connector-curvature="0"
         d="m 306.35,349.39 c 2.8754,-1.3707 4.6222,2.1238 1.5511,3.1054 -33.877,10.828 -21.71,28.191 -16.997,30.14 1.1674,0.48288 -1.654,3.4571 -2.2788,2.4582 -11.454,-18.312 -3.0737,-25.789 17.725,-35.704 z"
         style="fill:#000000"
         sodipodi:nodetypes="cssss"
         id="rect4312" />
      <path
         inkscape:connector-curvature="0"
         d="m 259.42,353.16 c -3.0849,-1.172 -4.7768,2.0772 -1.5022,2.8874 36.121,8.9371 24.043,25.182 19.163,27.102 -1.2087,0.47566 1.8868,3.1172 2.5025,2.1847 11.287,-17.093 2.1504,-23.697 -20.164,-32.175 z"
         style="fill:#000000"
         sodipodi:nodetypes="cssss"
         id="path4315" />
    </g>
  </g>
  <metadata
     id="metadata3073">
    <rdf:RDF>
      <cc:Work>
        <dc:format>image/svg+xml</dc:format>
        <dc:type
           rdf:resource="http://purl.org/dc/dcmitype/StillImage" />
        <cc:license
           rdf:resource="http://creativecommons.org/licenses/publicdomain/" />
        <dc:publisher>
          <cc:Agent
             rdf:about="http://openclipart.org/">
            <dc:title>Openclipart</dc:title>
          </cc:Agent>
        </dc:publisher>
        <dc:title></dc:title>
        <dc:date>2009-10-15T00:55:50</dc:date>
        <dc:description />
        <dc:source>https://openclipart.org/detail/27799/bee-by-kittyjingles15</dc:source>
        <dc:creator>
          <cc:Agent>
            <dc:title>kittyjingles15</dc:title>
          </cc:Agent>
        </dc:creator>
        <dc:subject>
          <rdf:Bag>
            <rdf:li>bee</rdf:li>
            <rdf:li>cleanup</rdf:li>
          </rdf:Bag>
        </dc:subject>
      </cc:Work>
      <cc:License
         rdf:about="http://creativecommons.org/licenses/publicdomain/">
        <cc:permits
           rdf:resource="http://creativecommons.org/ns#Reproduction" />
        <cc:permits
           rdf:resource="http://creativecommons.org/ns#Distribution" />
        <cc:permits
           rdf:resource="http://creativecommons.org/ns#DerivativeWorks" />
      </cc:License>
    </rdf:RDF>
  </metadata>
</svg>
